:SAMPLES-PER-SECOND 30
:FULLY-SPECIFIED
:DEGREES
324
root  24.0667 39.3817 69.1372 -7.26318 -5.18548 4.09997
RightUpLeg  -20.4341 -17.3311 1.60797
RightLeg  23.7441 7.77822 -4.66072
RightFoot  2.45021 -0.663149 4.71656
RightToes  5.82077e-011 -3.18055e-015 -2.98177e-016
Spine  6.38983 0.185218 -5.16248
Spine1  7.14074 -0.44903 1.79428
HEad  -11.2464 1.88141 0.459887
LeftShoulder1  -3.88251e-019 9.70628e-020 -3.87848e-018
LeftArm  -10.3839 50.9405 -62.4614
LeftForeArm  -19.1516 -22.419 -0.913752
LeftHand  -0.157019 3.21637 9.77697
RightShoulder  8.17944 10.9038 37.9235
RightArm  -0.330671 -46.6405 13.4319
RightForeArm  16.5249 0.764092 -5.79126
RightHand  -0.824264 3.16187 -11.0999
LeftUpLeg  2.7654 -2.57561 -7.04858
LeftLeg  19.5105 1.40579 6.91708
LeftFoot  -13.2848 -0.0351397 0.353784
LeftToes  7.79675e-011 9.80247e-012 -3.28897e-011
325
root  23.7683 39.2225 70.1591 -7.74784 -4.00404 3.06509
RightUpLeg  -15.8933 -13.9709 0.944833
RightLeg  13.1939 5.94578 -0.716912
RightFoot  5.85872 -0.401192 2.2614
RightToes  5.82077e-011 -3.18055e-015 -2.98177e-016
Spine  5.88886 -0.323207 -3.58964
Spine1  8.50238 -0.923961 2.6377
HEad  -11.2553 1.74191 0.659299
LeftShoulder1  -3.88251e-019 9.70628e-020 -3.87848e-018
LeftArm  -4.93845 48.5278 -61.4614
LeftForeArm  -24.1441 -25.9914 2.41854
LeftHand  -0.124019 3.3443 8.34383
RightShoulder  8.08669 10.8888 37.5052
RightArm  0.328546 -48.7377 11.5067
RightForeArm  23.1402 -1.28086 -6.164
RightHand  -0.782572 4.00873 -9.62316
LeftUpLeg  4.85174 -3.21801 -5.56732
LeftLeg  20.1231 0.735537 6.83364
LeftFoot  -15.3687 -0.0491393 -0.343256
LeftToes  7.79675e-011 9.80247e-012 -3.28897e-011
326
root  23.431 38.9261 71.1503 -8.28108 -2.42019 1.1977
RightUpLeg  -13.7511 -3.68401 0.0138503
RightLeg  11.695 -3.68751 0.237515
RightFoot  7.34987 0.444045 -2.6994
RightToes  5.82077e-011 -3.18055e-015 -2.98177e-016
Spine  6.02199 -1.04339 -0.770913
Spine1  9.13359 -1.4449 3.59351
HEad  -10.1498 1.32308 0.800148
LeftShoulder1  -3.88251e-019 9.70628e-020 -3.87848e-018
LeftArm  -2.84008 46.8498 -60.7267
LeftForeArm  -26.6718 -29.4727 5.12581
LeftHand  -0.249289 1.53838 8.28182
RightShoulder  8.06047 10.8974 37.3575
RightArm  3.07638 -50.9736 8.16535
RightForeArm  27.2098 -1.25688 -5.89577
RightHand  -0.64965 4.48995 -7.63701
LeftUpLeg  5.89594 -3.30314 -2.62233
LeftLeg  22.5173 -1.63665 6.4439
LeftFoot  -18.879 -0.117287 -1.26791
LeftToes  7.79675e-011 9.80247e-012 -3.28897e-011
327
root  23.0868 38.6543 72.0521 -8.86726 -1.68011 -1.40519
RightUpLeg  -13.9684 -3.57168 3.53101
RightLeg  16.151 -3.97476 -2.39842
RightFoot  5.79369 1.05554 -6.48264
RightToes  5.82077e-011 -3.18055e-015 -2.98177e-016
Spine  6.88632 -1.46172 3.17038
Spine1  8.87225 -1.37187 3.52903
HEad  -8.83104 0.565662 1.29762
LeftShoulder1  -3.88251e-019 9.70628e-020 -3.87848e-018
LeftArm  -4.96264 45.3783 -60.7346
LeftForeArm  -25.5814 -32.5533 5.98608
LeftHand  -0.53393 -1.7498 9.33426
RightShoulder  8.26609 10.9668 38.2007
RightArm  6.62314 -51.7566 4.26622
RightForeArm  28.5972 -0.153603 -5.1441
RightHand  -0.532893 4.71549 -6.15506
LeftUpLeg  5.40975 -2.03816 1.74388
LeftLeg  27.5362 -5.06287 5.79431
LeftFoot  -21.0671 -0.265571 -2.98887
LeftToes  7.79675e-011 9.80247e-012 -3.28897e-011
328
root  22.7697 38.4472 72.8507 -9.38067 -1.5916 -3.82517
RightUpLeg  -13.7638 -6.68854 7.04854
RightLeg  20.0143 -1.48356 -4.12068
RightFoot  2.70409 0.987186 -7.13326
RightToes  5.82077e-011 -3.18055e-015 -2.98177e-016
Spine  7.83436 -1.67451 5.9911
Spine1  8.3748 -1.26972 3.75266
HEad  -7.66128 0.0949 2.30329
LeftShoulder1  -3.88251e-019 9.70628e-020 -3.87848e-018
LeftArm  -8.47442 44.7057 -61.8817
LeftForeArm  -24.766 -34.7924 6.63684
LeftHand  -0.767744 -3.64959 10.5319
RightShoulder  8.4347 11.0176 38.8992
RightArm  8.36891 -51.3963 2.58158
RightForeArm  28.3695 1.00191 -4.68023
RightHand  -0.516773 4.60056 -6.03979
LeftUpLeg  2.99281 -0.767089 5.78561
LeftLeg  35.682 -7.23278 5.91243
LeftFoot  -19.4365 -0.382014 -6.23067
LeftToes  7.79675e-011 9.80247e-012 -3.28897e-011
329
root  22.4817 38.3544 73.5781 -9.73798 -0.719264 -5.28352
RightUpLeg  -12.9523 -8.84881 8.48606
RightLeg  21.9164 -0.42831 -4.29873
RightFoot  -0.302177 0.66493 -5.93164
RightToes  5.82077e-011 -3.18055e-015 -2.98177e-016
Spine  8.25985 -2.15464 5.94491
Spine1  8.19051 -2.10413 6.16764
HEad  -6.091 0.31183 3.48173
LeftShoulder1  -3.88251e-019 9.70628e-020 -3.87848e-018
LeftArm  -12.4598 45.2843 -63.692
LeftForeArm  -24.5137 -36.2257 7.07034
LeftHand  -0.810854 -3.40405 11.4016
RightShoulder  8.28733 10.9696 38.2963
RightArm  8.25194 -51.3617 3.54968
RightForeArm  26.6659 2.61103 -4.83678
RightHand  -0.574071 4.18153 -6.9744
LeftUpLeg  -0.854291 -1.07843 7.88956
LeftLeg  44.1151 -7.17535 7.70837
LeftFoot  -14.6974 -0.182083 -10.1424
LeftToes  7.79675e-011 9.80247e-012 -3.28897e-011
330
root  22.2095 38.4075 74.2851 -10.0561 0.974139 -5.68867
RightUpLeg  -11.5897 -7.4824 8.04347
RightLeg  22.7682 -3.28643 -4.25899
RightFoot  -2.08946 0.492532 -5.06968
RightToes  5.82077e-011 -3.18055e-015 -2.98177e-016
Spine  8.24671 -2.78077 4.19693
Spine1  8.09432 -3.36917 9.40516
HEad  -3.95915 0.615222 4.34123
LeftShoulder1  -3.88251e-019 9.70628e-020 -3.87848e-018
LeftArm  -14.4846 46.3082 -65.3996
LeftForeArm  -24.5863 -36.7198 7.2158
LeftHand  -0.766828 -3.3685 10.8646
RightShoulder  8.02794 10.8897 37.2165
RightArm  8.35844 -51.9654 4.89918
RightForeArm  22.6917 5.8232 -5.15586
RightHand  -0.678332 3.91957 -8.43324
LeftUpLeg  -4.80854 -2.19969 8.03623
LeftLeg  49.7683 -6.22337 10.4435
LeftFoot  -11.0875 0.164193 -11.5768
LeftToes  7.79675e-011 9.80247e-012 -3.28897e-011
331
root  21.9954 38.5325 74.9706 -10.2862 1.85201 -5.51955
RightUpLeg  -10.1202 -4.8772 7.81177
RightLeg  22.9445 -6.55325 -5.17816
RightFoot  -2.92263 0.424613 -4.68107
RightToes  5.82077e-011 -3.18055e-015 -2.98177e-016
Spine  8.03943 -2.94838 3.76288
Spine1  7.79979 -3.57328 10.0699
HEad  -2.11887 0.274416 4.63208
LeftShoulder1  -3.88251e-019 9.70628e-020 -3.87848e-018
LeftArm  -13.3143 46.7276 -66.3181
LeftForeArm  -24.4881 -36.1677 7.053
LeftHand  -0.690867 -4.20602 8.95384
RightShoulder  7.96548 10.868 36.9582
RightArm  9.84057 -52.3659 5.22919
RightForeArm  16.6319 10.361 -5.28229
RightHand  -0.867826 4.2396 -10.4009
LeftUpLeg  -7.76348 -2.19309 7.26077
LeftLeg  52.291 -5.46846 12.494
LeftFoot  -11.0737 0.142427 -9.36829
LeftToes  7.79675e-011 9.80247e-012 -3.28897e-011
